grf
version=1
nRows=9
nColumns=37
inDegrees=no
endheader
time	ground_force_1_vx	ground_force_1_vy	ground_force_1_vz	ground_force_1_px	ground_force_1_py	ground_force_1_pz	ground_moment_1_mx	ground_moment_1_my	ground_moment_1_mz	ground_force_2_vx	ground_force_2_vy	ground_force_2_vz	ground_force_2_px	ground_force_2_py	ground_force_2_pz	ground_moment_2_mx	ground_moment_2_my	ground_moment_2_mz	ground_force_3_vx	ground_force_3_vy	ground_force_3_vz	ground_force_3_px	ground_force_3_py	ground_force_3_pz	ground_moment_3_mx	ground_moment_3_my	ground_moment_3_mz	ground_force_4_vx	ground_force_4_vy	ground_force_4_vz	ground_force_4_px	ground_force_4_py	ground_force_4_pz	ground_moment_4_mx	ground_moment_4_my	ground_moment_4_mz
      3.93000000	      0.00000000	     -0.00000000	      0.00000000	      0.00000000	      0.00000000	      0.00000000	      0.00000000	      0.00000000	      0.00000000	     -2.05184174	     32.03361893	   -400.31686401	   -278.27273637	  -1103.59729113	      0.00000000	      0.00000000	      0.00000000	   5080.61786613	      9.49936089	    -34.36908805	   -413.83917236	   -256.40910326	   -678.81777684	      0.00000000	      0.00000000	     -0.00000000	  -2300.91214528	      0.00000000	     -0.00000000	      0.00000000	      0.00000000	      0.00000000	      0.00000000	      0.00000000	      0.00000000	      0.00000000
      3.94000000	      0.00000000	     -0.00000000	      0.00000000	      0.00000000	      0.00000000	      0.00000000	      0.00000000	      0.00000000	      0.00000000	     -2.64065933	     31.58778572	   -398.38696289	   -277.62773342	  -1103.49262621	      0.00000000	      0.00000000	      0.00000000	   4972.48674639	      9.49205094	    -34.84630668	   -414.51010132	   -255.97573749	   -677.76784355	      0.00000000	      0.00000000	     -0.00000000	  -2324.84499053	      0.00000000	     -0.00000000	      0.00000000	      0.00000000	      0.00000000	      0.00000000	      0.00000000	      0.00000000	      0.00000000
      3.95000000	      0.00000000	     -0.00000000	      0.00000000	      0.00000000	      0.00000000	      0.00000000	      0.00000000	      0.00000000	      0.00000000	     -2.89022827	     31.65950203	   -394.26403809	   -278.31575160	  -1101.19257040	      0.00000000	      0.00000000	      0.00000000	   4875.64813122	      9.33840541	    -34.96355138	   -410.95147705	   -256.69281895	   -677.82246408	      0.00000000	      0.00000000	     -0.00000000	  -2247.08703457	      0.00000000	     -0.00000000	      0.00000000	      0.00000000	      0.00000000	      0.00000000	      0.00000000	      0.00000000	      0.00000000
      3.96000000	      0.00000000	     -0.00000000	      0.00000000	      0.00000000	      0.00000000	      0.00000000	      0.00000000	      0.00000000	      0.00000000	     -2.66456223	     30.87434578	   -394.71557617	   -277.62006241	  -1101.76489883	      0.00000000	      0.00000000	      0.00000000	   5063.04784341	     10.28467163	    -34.49249357	   -408.55386353	   -256.26474670	   -677.80989056	      0.00000000	      0.00000000	     -0.00000000	  -2500.99425026	      0.00000000	     -0.00000000	      0.00000000	      0.00000000	      0.00000000	      0.00000000	      0.00000000	      0.00000000	      0.00000000
      3.97000000	      0.00000000	     -0.00000000	      0.00000000	      0.00000000	      0.00000000	      0.00000000	      0.00000000	      0.00000000	      0.00000000	     -3.03315735	     31.27308846	   -393.58132935	   -277.60060070	  -1102.00736682	      0.00000000	      0.00000000	      0.00000000	   4929.78730064	     10.08952506	    -34.58058255	   -407.41369629	   -257.11199687	   -677.05332487	      0.00000000	      0.00000000	     -0.00000000	  -2407.30457788	      0.00000000	     -0.00000000	      0.00000000	      0.00000000	      0.00000000	      0.00000000	      0.00000000	      0.00000000	      0.00000000
      3.98000000	      0.00000000	     -0.00000000	      0.00000000	      0.00000000	      0.00000000	      0.00000000	      0.00000000	      0.00000000	      0.00000000	     -3.48291898	     31.20724487	   -396.31387329	   -279.64331983	  -1103.25164701	      0.00000000	      0.00000000	      0.00000000	   4877.31273101	      9.94727879	    -34.84523479	   -405.42938232	   -257.29654331	   -677.73030329	      0.00000000	      0.00000000	     -0.00000000	  -2558.90337177	      0.00000000	     -0.00000000	      0.00000000	      0.00000000	      0.00000000	      0.00000000	      0.00000000	      0.00000000	      0.00000000
      3.99000000	      0.00000000	     -0.00000000	      0.00000000	      0.00000000	      0.00000000	      0.00000000	      0.00000000	      0.00000000	      0.00000000	     -3.67241263	     31.09496498	   -396.13064575	   -279.57222950	  -1104.50895646	      0.00000000	      0.00000000	      0.00000000	   4934.08236933	     10.43302900	    -34.67991729	   -404.54611206	   -258.32577853	   -678.28109153	      0.00000000	      0.00000000	     -0.00000000	  -2662.19119406	      0.00000000	     -0.00000000	      0.00000000	      0.00000000	      0.00000000	      0.00000000	      0.00000000	      0.00000000	      0.00000000
      4.00000000	      0.00000000	     -0.00000000	      0.00000000	      0.00000000	      0.00000000	      0.00000000	      0.00000000	      0.00000000	      0.00000000	     -3.60564852	     31.49474144	   -394.27447510	   -279.56206708	  -1103.95289617	      0.00000000	      0.00000000	      0.00000000	   5031.76875487	     10.01276191	    -34.49927227	   -404.75769043	   -258.42366447	   -677.93232353	      0.00000000	      0.00000000	     -0.00000000	  -2621.63584903	      0.00000000	     -0.00000000	      0.00000000	      0.00000000	      0.00000000	      0.00000000	      0.00000000	      0.00000000	      0.00000000
      4.01000000	      0.00000000	     -0.00000000	      0.00000000	      0.00000000	      0.00000000	      0.00000000	      0.00000000	      0.00000000	      0.00000000	     -3.68046451	     31.21633148	   -392.33773804	   -280.45087652	  -1102.76312174	      0.00000000	      0.00000000	      0.00000000	   4943.05612032	     10.17878421	    -34.57639783	   -403.78778076	   -259.05927860	   -678.28371167	      0.00000000	      0.00000000	     -0.00000000	  -2741.10642110	      0.00000000	     -0.00000000	      0.00000000	      0.00000000	      0.00000000	      0.00000000	      0.00000000	      0.00000000	      0.00000000
